<svg width="2000" height="2000" viewBox="0 0 2000 2000" fill="none" xmlns="http://www.w3.org/2000/svg">
<rect width="2000" height="2000" rx="424" fill="#464A4D"/>
<path fill-rule="evenodd" clip-rule="evenodd" d="M1101.97 608.827C1101.97 575.785 1128.78 549 1161.85 549H1392.13C1425.19 549 1452 575.785 1452 608.827V838.929C1452 871.97 1425.19 898.755 1392.13 898.755H1276.96C1215.83 905.142 1179.12 938.123 1179.12 997.699C1179.12 1001.61 1178.72 1005.65 1177.97 1009.79V1112.75C1177.97 1145.79 1151.16 1172.58 1118.09 1172.58H974.343C929.63 1180.4 898.175 1210.51 898.175 1297.98C898.175 1302.12 897.78 1305.64 897.025 1308.58V1391.17C897.025 1424.21 870.219 1451 837.153 1451H606.873C573.806 1451 547 1424.21 547 1391.17V1161.07C547 1128.03 573.806 1101.24 606.873 1101.24H718.812C796.919 1101.14 827.939 1051.71 827.939 997.699C827.939 948.625 790.955 906.184 723.01 898.755H606.873C573.806 898.755 547 871.97 547 838.929V608.827C547 575.785 573.806 549 606.873 549H837.153C870.219 549 897.025 575.785 897.025 608.827V697.085C897.78 700.099 898.175 703.649 898.175 707.771C898.175 795.964 953.235 822.722 999.239 822.821H999.806C1032.17 822.762 1100.82 813.282 1100.82 707.771C1100.82 702.742 1101.22 698.37 1101.97 694.611V608.827ZM1326.5 1200.19C1321.77 1200.19 1317.1 1200.45 1312.51 1200.96C1312.47 1200.07 1312.43 1199.16 1312.4 1198.24L1312.4 1198.23C1311.98 1186.17 1311.5 1172.58 1290.09 1172.58C1267.2 1172.58 1265.68 1188.11 1264.33 1201.87C1263.61 1209.28 1262.93 1216.18 1258.99 1219.86C1258.1 1220.43 1257.22 1221 1256.35 1221.59C1255.96 1221.77 1255.54 1221.92 1255.11 1222.05L1255.24 1222.35C1222.47 1244.98 1200.99 1282.78 1200.99 1325.59V1391.72C1200.99 1424.46 1227.56 1451 1260.32 1451H1392.67C1425.44 1451 1452 1424.46 1452 1391.72V1325.59C1452 1282.4 1430.14 1244.3 1396.87 1221.74C1391.38 1215.87 1390.84 1207.39 1390.31 1199.12C1389.45 1185.56 1388.62 1172.58 1366.08 1172.58C1344.67 1172.58 1344.19 1186.17 1343.77 1198.23C1343.73 1199.28 1343.69 1200.33 1343.64 1201.35C1338.04 1200.58 1332.31 1200.19 1326.5 1200.19Z" fill="#FFFF00"/>
</svg>
